<?xml version="1.0" encoding="UTF-8"?>
<svg id="Layer_1" data-name="Layer 1" xmlns="http://www.w3.org/2000/svg" version="1.1" viewBox="0 0 500 483.149">
  <defs>
    <style>
      .cls-1 {
        fill: #00529c;
        stroke-width: 0px;
      }
    </style>
  </defs>
  <path class="cls-1" d="M248.073,0c-36.574,0-86.044,9.635-129.1,35.457l-7.49,4.598s38.519,57.199,48.034,71.392c25.623-16.157,54.876-24.107,88.557-24.107,97.982.05,169.225,73.647,169.404,154.234-.18,80.578-71.422,154.195-169.404,154.235-10.283,0-15.988-.808-25.613-2.344v-177.274c7.022-3.551,16.307-7.291,27.348-7.291,39.347.27,47.475,22.162,47.535,33.722.319,10.921-12.547,31.447-40.124,33.621l-9.425.798v83.281h10.253c51.205-.379,120.782-44.303,121.82-117.7-.588-75.97-70.435-119.416-134.696-119.566-38.519.1-79.541,17.046-103.248,51.026,0,56.711,1.436,283.853,1.436,283.853,31.188,16.437,67.822,25.194,104.715,25.214,67.243,0,130.028-23.917,176.276-66.166,46.238-42.249,75.731-103.159,75.651-175.409C499.93,99.22,382.449.25,248.073,0"/>
  <path class="cls-1" d="M18.888,335.515c2.204,5.027,4.548,9.964,7.081,14.812l78.603-38.668c-1.576-3.022-3.012-6.114-4.369-9.236l-81.316,33.093Z"/>
  <path class="cls-1" d="M.004,260.287c.908,11.679,2.703,23.279,5.346,34.699l86.084-18.83c-1.725-7.39-2.902-14.9-3.501-22.471L.004,260.287Z"/>
  <path class="cls-1" d="M14.362,158.716c-7.76,20.497-12.597,41.99-14.362,63.832l87.929,6.682c1.147-14.153,4.279-28.076,9.325-41.351l-82.892-29.163Z"/>
  <path class="cls-1" d="M90.436,55.091c-25.842,20.516-47.266,46.039-62.974,75.043l78.294,39.186c10.064-18.571,23.738-34.938,40.214-48.153l-55.534-66.076Z"/>
</svg>