<?xml version="1.0" encoding="utf-8"?>
<!-- Generator: Adobe Illustrator 25.0.1, SVG Export Plug-In . SVG Version: 6.00 Build 0)  -->
<svg version="1.1" id="Layer_1" xmlns="http://www.w3.org/2000/svg" xmlns:xlink="http://www.w3.org/1999/xlink" x="0px" y="0px"
	 viewBox="0 0 1619.4 614.3" style="enable-background:new 0 0 1619.4 614.3;" xml:space="preserve">
<style type="text/css">
	.st0{fill:#E82D36;}
	.st1{fill:#6E171F;}
</style>
<g>
	<g transform="translate(0.000000,615.000000) scale(0.100000,-0.100000)">
		<path d="M14320,5989.6c-4-13-9-30-12-38c-2-8-7-134-10-279c-5-239-4-268,12-297c9-18,25-34,34-36s142-1,297,2c217,4,285,8,297,19
			c15,12,17,47,17,317c0,262-2,305-16,318c-13,14-56,16-314,16h-298L14320,5989.6z"/>
		<path d="M15328,5999.6c-14-23-23-120-34-360c-10-217-9-239,7-263c9-14,24-29,33-33c26-12,611,11,619,25c4,6,5,149,2,317
			c-4,258-7,308-20,316C15911,6016.6,15338,6014.6,15328,5999.6z"/>
		<path d="M5,5686.6c0-189,4-295,10-296s21-1,35-1s113,0,220,1l195,1v49c0,35-4,51-16,55c-9,3-78,6-155,6H155v240v240H80H5V5686.6z"
			/>
		<path d="M565,5686.6v-294l231-3c127-2,234-1,238,2c5,3,8,28,7,55l-1,50l-167,3l-168,2v70v70h155h155v44c0,41-16,69-36,65
			c-5-1-69-1-141,0l-133,1v60v60h159c88,0,162,4,165,8c3,5,7,29,10,55l6,47H805H565V5686.6z"/>
		<path d="M1112,5975.6c-7-7,0-26,39-109c15-33,29-64,30-70c1-5,16-41,34-80c17-38,35-79,40-90s21-47,35-80c60-139,69-155,87-156
			c10,0,41,0,68,0c87,0,90,0,99,24c5,12,23,54,41,92c18,39,40,90,50,115s34,80,54,123s36,82,36,86s11,30,24,57c43,89,43,89-47,89
			h-78l-21-50c-11-27-29-69-39-92c-11-24-19-45-19-49c0-3-14-38-31-77c-16-40-34-81-39-92c-4-11-11-28-14-37c-3-10-9-18-14-18
			c-9,0-14,11-82,180c-63,157-70,173-80,192c-6,10-10,25-10,33c0,12-15,15-78,15C1154,5981.6,1116,5978.6,1112,5975.6z"/>
		<path d="M1862,5975.6c-4-4-7-135-7-290c0-235,2-284,14-291c8-4,43-6,78-3l63,5v290v290l-70,3C1901,5980.6,1866,5979.6,1862,5975.6
			z"/>
		<path d="M2115,5942.6c0-74-6-71,177-71c157,0,164-1,151-18c-20-29-117-143-242-285c-32-37-65-75-72-84c-16-21-19-90-4-95
			c5-1,129-2,275,0l266,3l-3,52l-3,52l-167,3c-93,1-168,6-168,10s12,21,28,37c15,17,54,62,87,100c33,39,62,72,65,75s41,46,83,97
			c68,80,78,96,75,125l-3,33l-272,3l-273,2V5942.6z"/>
		<path d="M3043,5750.6c-3-215-4-232-22-245c-33-24-133-11-137,18c-1,4-2,12-3,18c-3,23-27,31-87,28l-64-3l1-36c1-43,34-93,75-114
			c16-9,61-22,101-29c64-12,78-12,134,4c83,22,112,43,135,93c16,37,19,68,19,270v227h-74h-75L3043,5750.6z"/>
		<path d="M3490,5906.6c-19-41-35-77-35-79c0-3-16-40-36-83s-45-100-56-128c-19-51-61-145-79-177c-22-42-13-48,69-48h77l19,48
			c38,96,31,92,166,92h119l21-46c11-26,20-52,20-59c0-27,31-38,98-36c36,1,69,4,73,7c4,2-1,21-11,42c-16,35-41,92-60,137
			c-5,11-23,51-39,88c-17,38-31,70-31,72c0,4-16,41-69,160c-10,22-22,50-25,63c-7,21-13,22-97,22h-90L3490,5906.6z M3650,5736.6
			c15-38,32-74,37-79c18-21,4-26-76-26h-84l30,73c40,99,51,119,58,110C3619,5809.6,3634,5775.6,3650,5736.6z"/>
		<path d="M6704,5127.6c-3-4-48-10-100-16c-52-5-105-12-119-15c-14-2-41-8-60-11c-125-21-324-101-445-177c-195-124-332-311-376-512
			c-43-201-29-406,36-536c62-122,199-244,355-316c96-45,139-63,150-63c5,0,18-4,28-10c26-14,110-40,132-40c10,0,21-4,24-9
			s18-11,33-14c42-9,162-37,208-48c47-12,166-37,215-45c59-10,170-53,170-66c0-4,6-8,13-8s29-13,48-30c93-76,64-231-53-287
			c-169-81-289-47-364,102c-21,42-44,81-51,87c-17,14-970,5-984-9c-15-15,13-207,42-283c26-71,126-234,175-286
			c41-43,132-108,179-128c22-9,47-20,55-24c8-5,42-16,75-26c33-11,69-22,80-26c40-15,209-50,340-70c97-15,294-15,390-1
			c137,20,340,62,425,86c30,9,67,19,83,22c15,3,30,9,33,14s12,9,19,9c21,0,180,77,245,118c166,105,292,269,339,442c7,25,17,60,23,79
			c14,45,14,296,1,341c-6,19-19,60-28,90c-35,114-91,206-169,278c-59,54-195,142-266,171c-30,13-74,32-97,42c-23,11-47,19-53,19
			s-48,11-93,25c-133,41-139,43-217,60c-41,9-88,20-105,25c-16,4-64,16-105,26c-41,9-84,20-95,24s-60,20-108,35
			c-120,39-156,78-148,165c3,34,32,62,96,94c46,22,67,26,141,26c77,0,91-3,119-24c18-14,39-44,49-69c32-84,25-82,406-79
			c454,3,553,9,586,35c23,18,25,25,21,76c-6,64-24,156-36,186c-36,83-48,106-81,155c-63,92-207,214-307,260c-26,12-55,25-63,29
			s-42,16-75,25c-33,10-69,22-80,26c-30,12-130,31-220,41C7039,5124.6,6712,5135.6,6704,5127.6z"/>
		<path d="M9797,5027.6c-15-16-17-63-20-466l-3-449l-62-6c-34-3-129-5-212-3l-150,3v185c0,102,3,282,5,400c5,234,2,253-51,292
			c-55,41-139,48-581,48c-323,0-419-3-425-12c-4-7-11-326-15-708s-11-938-16-1235c-9-602-5-716,21-743c16-16,56-17,515-17
			c457,0,500,1,530,18l32,18v458c0,409,2,460,16,465c31,12,349,7,362-6c9-9,12-125,12-459v-448l24-28l24-28l432-4
			c426-3,575,4,607,31c17,14,19,2614,2,2652c-27,59-114,68-617,64C9839,5046.6,9813,5045.6,9797,5027.6z"/>
		<path d="M334,5037.6c-2-2-73-6-157-9c-98-3-158-9-165-16c-9-9-12-322-12-1264c0-1286,3-1383,39-1433c11-14,50-15,436-6
			c234,5,578,7,765,5c468-6,628,15,839,112c143,65,305,200,351,291c11,21,23,41,27,44c3,3,14,25,23,50s21,54,26,65
			c14,30,29,151,29,232c0,173-50,294-175,418c-67,67-97,89-180,129c-55,27-108,52-117,57c-10,5-27,9-39,9c-16,0-10,6,22,24
			c96,51,187,121,259,202c91,102,120,160,151,307c21,97-12,277-76,412c-67,143-127,203-270,269c-123,57-134,61-330,96
			C1733,5039.6,343,5045.6,334,5037.6z M1237,4492.6c13-5,48-17,79-27c126-39,182-112,187-243c9-212-107-319-382-350
			c-134-16-131-22-141,307l-7,262l32,30c31,29,36,30,121,30C1174,4501.6,1224,4497.6,1237,4492.6z M1243,3496.6c53-9,106-19,117-24
			c106-47,112-51,150-111c28-43,29-51,30-160c0-131-10-162-72-222c-68-65-155-94-310-103c-110-7-111-7-125,16c-21,39-17,498,6,567
			l18,52h44C1125,3511.6,1189,3504.6,1243,3496.6z"/>
		<path d="M3376,5027.6c-6-7-20-42-32-77c-11-35-24-73-28-84c-5-11-17-49-27-85c-9-36-20-69-24-75c-3-5-14-37-24-70s-22-69-27-80
			c-4-11-49-146-100-300c-50-154-95-289-99-300s-15-47-25-80c-9-33-21-69-26-80c-4-11-16-45-25-75c-8-30-19-64-24-75
			c-12-29-22-60-85-260c-31-99-61-188-66-197c-5-10-9-25-9-33s-4-23-9-33c-6-9-17-44-26-77c-10-33-21-69-25-80c-5-11-16-47-25-80
			s-21-68-26-77c-5-10-9-24-9-32c0-7-18-69-40-136s-40-130-40-139c0-10-3-21-7-25c-4-3-15-37-24-74c-19-72-15-86,29-103
			c28-11,946,10,979,22c15,6,24,20,29,46c4,21,10,43,14,48c4,6,10,24,13,40c9,52,34,150,57,230l12,40l367,4c353,3,368,3,374-15
			c4-11,14-39,22-64c19-54,33-122,45-213c16-119,4-114,255-122c292-10,841,3,855,20c7,9,6,25-4,56c-7,24-20,67-29,94
			c-42,140-100,322-107,340c-4,11-16,47-25,80s-20,69-24,80c-20,49-41,121-41,138c0,9-4,17-10,17c-5,0-10,7-10,16
			c0,15-25,101-40,139c-4,11-16,47-25,80s-20,69-25,80c-4,11-16,47-25,80c-10,33-21,69-26,80s-15,45-24,75s-21,63-26,72
			c-5,10-9,25-9,33s-4,23-9,33c-6,9-17,44-26,77c-10,33-21,69-25,80s-50,148-101,305s-96,292-100,300s-15,42-25,75s-21,65-24,70
			c-4,6-15,37-25,70s-21,65-25,70c-3,6-15,38-25,73c-11,37-27,69-39,78C4671,5048.6,3393,5048.6,3376,5027.6z M4068,4447.6
			c20-22,58-151,57-198c0-9,4-19,9-22s11-23,14-43c3-21,13-69,22-108c24-105,33-143,49-220c8-38,20-90,26-115c14-55,38-201,50-295
			c5-38,12-82,15-97l7-28h-292c-274,0-292,1-285,18c3,9,13,53,21,97c19,98,28,141,48,225c9,36,20,83,25,105s17,69,26,105
			s20,83,24,105c17,75,53,220,61,240c4,11,16,49,25,85s21,74,25,85s13,35,20,53C4030,4477.6,4039,4479.6,4068,4447.6z"/>
		<path d="M11202,5034.6c-3-5-6-613-8-1351l-4-1344l24-19c23-19,43-20,502-19c405,1,483,4,509,16l30,15v279c0,153,3,281,8,284
			c4,2,9,66,11,142c1,76,4,141,6,144s7,48,10,100c4,52,8,96,9,97c2,2,63-118,137-265c73-147,136-269,139-272s42-79,88-170
			s105-205,131-255l49-90l562-3c579-2,590-2,590,37c0,26-103,211-122,219c-5,2-8,8-8,13s-18,38-40,74s-40,70-40,75c0,6-4,10-10,10
			c-5,0-10,4-10,9s-20,42-44,83c-25,40-57,96-72,123c-34,64-195,340-246,422c-21,34-38,65-38,68c0,9-54,90-62,93c-5,2-8,8-8,14
			s-28,51-62,101l-61,91l24,45c13,25,46,81,72,125c52,86,87,146,125,216c13,25,27,50,32,55c6,9,28,48,84,150c6,11,13,22,16,25
			s17,28,31,55c46,86,91,170,99,180c4,6,22,37,40,70c66,123,75,140,80,145c6,6,21,33,69,124c29,56,36,76,25,80c-7,3-249,8-537,12
			l-523,7l-26-26c-30-29-98-165-154-302c-46-115-166-377-203-445c-24-45-92-182-112-227c-18-43-27-53-47-53h-25l4,512l4,512l-25,13
			c-19,10-140,13-522,13C11430,5041.6,11204,5038.6,11202,5034.6z"/>
		<path d="M14092,4154.6c-4-487-7-1095-7-1351v-465l23-20c21-18,32-19,207-14c518,17,1287,29,1541,24c280-4,312-2,331,27
			c11,17,10,196-4,443l-12,223l-34,6c-31,6-748-12-934-23l-78-5v205v205l308,6c410,8,615,16,627,26c7,6,7,98,2,272
			c-7,209-11,266-23,278c-12,13-55,15-262,14c-136,0-343-4-460-8l-214-7l4,68c3,37,11,125,18,195l14,128l475-6c389-4,481-3,501,8
			l25,14l3,322l2,322h-1023h-1024L14092,4154.6z"/>
		<path class="st0" d="M45,1807.6c0-7,12-39,26-70c14-32,26-73,27-92s6-34,11-34c10,0,223-15,561-40c66-5,188-13,270-19
			c83-6,206-15,275-20c69-6,190-15,270-21s201-15,270-20c69-6,190-15,270-20s237-16,350-25c254-19,459-33,570-40c47-3,173-12,280-20
			s267-19,355-24c88-6,259-18,380-26s285-20,365-25s213-14,295-20c142-10,350-23,550-35c50-3,194-12,320-20c127-8,313-19,415-25
			c102-5,262-15,355-20c94-6,258-15,365-20s229-12,270-14c41-3,156-8,255-12s205-9,235-11s343-3,695-3c554,0,1151-11,1350-25
			c33-2,130-7,215-10c369-14,1292-62,1845-95c88-5,282-16,430-25c364-21,398-24,560-35c77-5,196-12,265-15s184-10,255-15
			c264-20,443-31,575-35c143-5,550-28,785-45c77-5,223-14,325-20s255-15,340-20c85-6,250-15,365-21c116-5,235-12,265-14s133-4,228-5
			c94,0,172-5,172-9c0-8,119-3,129,5c2,2-5,45-15,96c-30,154-20,690,17,946c1,4,1,13,0,20C16184,1828.6,45,1827.6,45,1807.6z"/>
	</g>
	<circle cx="70.9" cy="5.9" r="5.9"/>
	<circle cx="88.1" cy="5.9" r="5.9"/>
	<g transform="translate(0.000000,615.000000) scale(0.100000,-0.100000)">
		<path class="st1" d="M13563.9,876c-30-6-144-45-205-71c-11-5-54-20-95-35s-84-30-95-35c-11-4-42-16-70-25c-27-9-64-23-82-31
			c-17-8-37-14-45-14s-18-4-24-8c-5-4-27-14-49-21s-58-19-80-28c-121-47-220-83-229-83c-4,0-24-7-44-16c-52-22-70-30-127-49
			c-27-9-59-20-70-25c-11-4-54-20-95-34c-41-15-83-31-92-37c-10-5-23-9-29-9s-25-6-42-14c-18-7-54-21-82-31c-27-9-59-20-70-25
			c-11-4-54-20-95-35c-41-14-84-30-95-35s-56-21-100-36s-93-33-110-40c-16-6-64-24-105-39c-41-14-82-30-91-35s-34-13-55-19
			c-22-6-48-18-59-26c-18-14-15-15,50-10c39,4,90,10,115,15s97,16,160,25c63,8,138,20,165,25c28,5,100,16,160,25c61,8,133,20,160,25
			c28,5,102,16,165,24c63,9,131,18,150,21c147,23,234,36,290,45c85,14,171,27,300,46c58,9,130,19,160,24c62,10,244,37,335,51
			c110,16,269,40,325,49c30,5,100,14,155,20s109,15,120,20s40,11,65,13c25,3,95,13,155,22c61,9,135,21,165,25c30,5,105,16,165,25
			c61,9,137,20,170,25c150,23,284,43,330,50c28,5,102,16,165,25s138,21,165,25c28,5,88,13,135,19s96,14,110,17c23,6,56,11,185,29
			c122,17,225,38,225,45c0,5-78,10-172,10c-95,1-198,3-228,5s-149,9-265,14c-115,6-280,15-365,21c-85,5-238,14-340,20
			s-246,15-320,20s-256,16-405,25c-148,8-295,17-325,19S13582.9,879,13563.9,876z"/>
	</g>
</g>
</svg>
