<svg width="436" height="88" viewBox="0 0 436 88" fill="none" xmlns="http://www.w3.org/2000/svg">
<path opacity="0.6" d="M9.23162 0.642093C8.34974 0.196195 7.33651 0 6.19194 0H3.15226L0 0.0178359V15H3.62135V10.2735H6.30452C7.43033 10.2735 8.42479 10.0595 9.30668 9.61356C10.1698 9.16766 10.864 8.56124 11.3519 7.77646C11.8397 6.99168 12.0837 6.11772 12.0837 5.13674C12.0837 4.15577 11.8397 3.2283 11.3331 2.46136C10.8265 1.69441 10.1323 1.08799 9.25038 0.642093H9.23162ZM7.76807 6.56362C7.37404 6.92033 6.86743 7.11653 6.2107 7.11653H3.62135V3.17479H6.09812C6.54845 3.17479 6.94248 3.26397 7.28022 3.42449C7.61796 3.58502 7.88065 3.81688 8.06829 4.1201C8.25592 4.42331 8.34974 4.76219 8.34974 5.15458C8.34974 5.74316 8.1621 6.2069 7.76807 6.58145V6.56362ZM31.5789 0.0178359H27.9763L21.8594 15H25.6872L26.813 12.1463H33.0425L34.1683 15H37.996L31.8604 0.0178359H31.5977H31.5789ZM28.0138 9.11415L29.9277 4.24495L31.8416 9.11415H28.0138ZM56.9659 9.34602C57.8665 8.91795 58.5608 8.32937 59.0674 7.58026C59.574 6.83115 59.8367 5.95719 59.8367 4.99405C59.8367 4.03092 59.5927 3.15696 59.0861 2.40785C58.5795 1.65874 57.8853 1.05232 57.0034 0.624257C56.1215 0.196195 55.1083 0 53.9637 0H50.924L47.7718 0.0178359V15H51.3931V9.97027H53.3257L56.3279 15H60.4746L56.9096 9.36385C56.9096 9.36385 56.9659 9.36385 56.9846 9.34602H56.9659ZM51.3931 3.17479H53.7761C54.4516 3.17479 54.9957 3.35315 55.4085 3.69203C55.8213 4.03092 56.0277 4.47681 56.0277 4.99405C56.0277 5.33294 55.9339 5.65398 55.7462 5.92152C55.5586 6.2069 55.2959 6.42093 54.9769 6.58145C54.658 6.74197 54.2639 6.81332 53.8511 6.81332H51.3931V3.17479ZM69.8939 0.0178359H82.6906V3.19263H78.0935V15H74.4909V3.19263H69.8939V0.0178359ZM92.4663 0.0178359H96.0877V15H92.4663V0.0178359ZM118.172 15H122L115.864 0.0178359H111.999L105.882 15H109.71L110.836 12.1463H117.065L118.191 15H118.172ZM112.018 9.11415L113.932 4.24495L115.846 9.11415H112.018Z" fill="#8298B8"/>
<path d="M56.376 28.7357H63.9864V87.9925H48.1586V52.97L32.0729 76.1381L15.8126 52.97V87.985H0V28.7357H17.535L31.9894 49.9219L46.4438 28.7357H56.3685H56.376ZM105.969 64.0435C105.969 66.018 105.582 67.7147 104.815 69.1186C104.049 70.53 102.919 71.6036 101.431 72.3393C99.9518 73.0751 98.1763 73.4429 96.1276 73.4429C94.0789 73.4429 92.3186 73.0751 90.8618 72.3393C89.405 71.6111 88.282 70.5375 87.4777 69.1186C86.681 67.7147 86.2789 66.018 86.2789 64.0435V27.7222H70.4511V64.0435C70.4511 69.0135 71.4602 73.2853 73.4861 76.8739C75.512 80.455 78.4333 83.2027 82.2574 85.1246C86.0816 87.039 90.6417 88 95.9455 88C101.249 88 105.999 87.039 109.846 85.1246C113.693 83.2027 116.652 80.455 118.701 76.8739C120.749 73.2853 121.781 69.0135 121.781 64.0435V27.7222H105.954V64.0435H105.969ZM168.301 61.2357L144.946 28.6532H128.261V87.9099L144.089 87.9925V54.1411L168.301 87.9099H184.129V28.6532H168.301V61.2357ZM239.875 43C242.728 47.4294 244.155 52.5571 244.155 58.3604C244.155 64.1637 242.728 69.2237 239.875 73.6832C237.022 78.1502 233.077 81.6411 228.031 84.1787C222.985 86.7237 217.173 87.985 210.617 87.985H190.601V28.7357H210.617C217.173 28.7357 222.985 30.012 228.031 32.542C233.077 35.0871 237.03 38.5706 239.875 43ZM227.894 58.3679C227.894 56.1682 227.469 54.1637 226.612 52.3619C225.755 50.5601 224.556 48.9985 223.023 47.7072C221.483 46.4084 219.654 45.3949 217.545 44.6592C215.435 43.9234 213.121 43.5556 210.617 43.5556H206.429V73.1877H210.617C213.129 73.1877 215.435 72.8123 217.545 72.0841C219.654 71.3484 221.475 70.3348 223.023 69.0285C224.563 67.7297 225.762 66.1832 226.612 64.3814C227.469 62.5796 227.894 60.5751 227.894 58.3679ZM266.447 65.3123H284.832L286.129 51.3408H266.447V43.1276H290.743V28.7357H250.619V87.9925H291.342V73.6006H266.447V65.3048V65.3123ZM278.511 22.9024C280.507 22.9024 282.26 22.1517 283.77 20.6577C285.279 19.1637 286.038 17.4294 286.038 15.4474C286.038 13.4655 285.279 11.7387 283.77 10.2372C282.26 8.75075 280.507 8 278.511 8C276.516 8 274.755 8.75075 273.245 10.2372C271.736 11.7387 270.977 13.473 270.977 15.4474C270.977 17.4219 271.736 19.1637 273.245 20.6577C274.755 22.1517 276.508 22.9024 278.511 22.9024ZM258.571 22.9024C260.627 22.9024 262.395 22.1667 263.875 20.6952C265.354 19.2237 266.098 17.4745 266.098 15.4474C266.098 13.4204 265.354 11.6637 263.875 10.1997C262.395 8.73574 260.62 8 258.571 8C256.522 8 254.747 8.72823 253.267 10.1997C251.788 11.6712 251.044 13.4204 251.044 15.4474C251.044 17.4745 251.788 19.2312 253.267 20.6952C254.747 22.1592 256.522 22.9024 258.571 22.9024ZM335.418 54.3514C332.368 52.6847 328.445 51.3108 323.65 50.2447C320.175 49.449 317.846 48.7207 316.677 48.0375C315.509 47.3619 314.924 46.461 314.924 45.3273C314.924 44.1937 315.448 43.3078 316.503 42.6622C317.557 42.0165 318.968 41.6937 320.736 41.6937C322.732 41.6937 324.826 42.0691 327.027 42.8348C329.227 43.5931 330.972 44.8544 332.285 46.5961L343.924 38.3003C341.929 35.0796 339.076 32.4444 335.365 30.3874C331.655 28.3303 327.178 27.3018 321.935 27.3018C317.254 27.3018 313.225 28.1502 309.825 29.8393C306.434 31.536 303.824 33.8108 302.003 36.6562C300.174 39.5015 299.263 42.6772 299.263 46.1757C299.263 49.3363 299.893 52.1441 301.145 54.5991C302.397 57.0541 304.506 59.1411 307.473 60.8604C310.44 62.5796 314.431 64.006 319.454 65.1321C321.852 65.6426 323.673 66.1682 324.932 66.7012C326.184 67.2417 327.027 67.7898 327.459 68.3453C327.884 68.9084 328.096 69.5616 328.096 70.2973C328.096 71.3709 327.626 72.2718 326.685 73.0075C325.744 73.7432 324.333 74.1111 322.451 74.1111C320 74.1111 317.588 73.4805 315.228 72.2042C312.86 70.9354 310.933 69.2613 309.454 67.1667L297.814 74.7042C299.354 77.527 301.282 79.9294 303.588 81.8964C305.903 83.8709 308.551 85.3799 311.548 86.4309C314.545 87.4745 317.861 87.9925 321.518 87.9925C326.253 87.9925 330.327 87.1967 333.749 85.6201C337.171 84.0435 339.797 81.8514 341.618 79.0586C343.439 76.2583 344.357 73.0826 344.357 69.5315C344.357 65.9805 343.628 62.97 342.171 60.5225C340.715 58.0601 338.461 56.003 335.411 54.3438L335.418 54.3514ZM350.821 87.9925H366.649V28.7357H350.821V87.9925ZM415.726 78.518H393.388L389.882 88H373.114L396.044 28.7432H413.07L436 88H419.231L415.726 78.518ZM410.627 64.7192L404.557 48.3003L398.487 64.7192H410.627Z" fill="#FF9F00"/>
</svg>
