<?xml version="1.0" encoding="UTF-8" standalone="no"?>
<svg
   xmlns:dc="http://purl.org/dc/elements/1.1/"
   xmlns:cc="http://creativecommons.org/ns#"
   xmlns:rdf="http://www.w3.org/1999/02/22-rdf-syntax-ns#"
   xmlns:svg="http://www.w3.org/2000/svg"
   xmlns="http://www.w3.org/2000/svg"
   xmlns:sodipodi="http://sodipodi.sourceforge.net/DTD/sodipodi-0.dtd"
   xmlns:inkscape="http://www.inkscape.org/namespaces/inkscape"
   xml:space="preserve"
   width="125.5mm"
   height="125mm"
   version="1.1"
   style="shape-rendering:geometricPrecision; text-rendering:geometricPrecision; image-rendering:optimizeQuality; fill-rule:evenodd; clip-rule:evenodd"
   viewBox="0 0 12550 12500"
   id="svg18"
   sodipodi:docname="Logo_e_Partisë_Socialiste_të_Shqipërisë.svg"
   inkscape:version="1.0.2 (e86c870879, 2021-01-15, custom)"><metadata
   id="metadata22"><rdf:RDF><cc:Work
       rdf:about=""><dc:format>image/svg+xml</dc:format><dc:type
         rdf:resource="http://purl.org/dc/dcmitype/StillImage" /></cc:Work></rdf:RDF></metadata><sodipodi:namedview
   pagecolor="#ffffff"
   bordercolor="#666666"
   borderopacity="1"
   objecttolerance="10"
   gridtolerance="10"
   guidetolerance="10"
   inkscape:pageopacity="0"
   inkscape:pageshadow="2"
   inkscape:window-width="1680"
   inkscape:window-height="988"
   id="namedview20"
   showgrid="false"
   inkscape:zoom="1.1000814"
   inkscape:cx="215.46934"
   inkscape:cy="171.46279"
   inkscape:window-x="-8"
   inkscape:window-y="-8"
   inkscape:window-maximized="1"
   inkscape:current-layer="svg18" />
 <defs
   id="defs4">
  <style
   type="text/css"
   id="style2">
   <![CDATA[
    .fil0 {fill:#171414}
    .fil3 {fill:#29823E}
    .fil4 {fill:#70C741}
    .fil1 {fill:#E2002C}
    .fil2 {fill:#F3C1DD}
   ]]>
  </style>
 </defs>
 <path
   id="path2410"
   style="fill:#ffffff;stroke-width:8.94292;paint-order:fill markers stroke"
   d="M 12303.912,6250 A 6028.9116,6028.9116 0 0 1 6275,12278.912 6028.9116,6028.9116 0 0 1 246.08838,6250 6028.9116,6028.9116 0 0 1 6275,221.08838 6028.9116,6028.9116 0 0 1 12303.912,6250 Z" /><g
   id="Layer_x0020_1">
  <metadata
   id="CorelCorpID_0Corel-Layer" />
  <path
   class="fil0"
   d="M7864 5232c297,-284 384,-694 208,-1121 205,-750 -230,-1218 -943,-1066 -405,-330 -1023,-305 -1379,16 -709,-113 -1112,392 -896,1110 -156,373 -87,765 269,1061 -115,0 -230,0 -345,0l0 501c0,144 61,273 158,365 -88,83 -146,197 -156,324l-1039 0 0 2212 1036 0c-9,283 218,517 500,517 726,0 1451,0 2177,0 276,0 501,-225 501,-501 0,-93 -26,-181 -71,-256 195,-69 335,-255 335,-473 0,-144 -60,-273 -157,-365 97,-91 157,-221 157,-364 0,-144 -60,-274 -158,-365 98,-92 158,-221 158,-365 0,-159 -74,-301 -190,-393 81,-89 130,-207 130,-336l0 -501 -273 0 -22 0z"
   id="path7" />
  <path
   class="fil1"
   d="M6200 5088c-558,388 -1304,-57 -1168,-749 153,131 346,184 544,167 106,343 331,513 624,582zm728 -1592c333,-11 693,84 981,378 136,-636 -696,-867 -981,-378zm45 1716c-38,-9 -75,-14 -113,-23 -1,-49 -2,-99 -3,-148 445,-168 653,-725 399,-1214 637,125 816,899 387,1256 -143,119 -364,180 -670,129zm-286 -1792c42,-85 101,-172 187,-240 -464,-352 -1157,-30 -1183,579 264,-310 632,-414 996,-339zm-1130 -116c-180,321 -159,642 -15,963 -719,-31 -625,-1013 15,-963zm908 354c71,0 129,58 129,129 0,72 -58,130 -129,130 -72,0 -130,-58 -130,-130 0,-71 58,-129 130,-129zm593 837c100,-328 19,-544 -201,-673 -39,221 -168,337 -379,361 131,186 307,314 580,312zm-1006 -687c-291,231 -268,600 -124,809 177,256 612,398 904,112 -464,-67 -712,-387 -780,-921z"
   id="path9" />
  <path
   class="fil2"
   d="M4778 7192c0,276 225,501 502,501l569 0c131,0 250,-50 339,-132 -95,91 -154,219 -154,360 0,143 61,273 158,365 -97,91 -158,221 -158,364 0,82 20,160 56,228l-813 0c-144,0 -223,-109 -228,-244l0 -273 -1035 0 0 -1666 764 0 0 497zm1758 1686l918 0c125,0 228,-102 228,-228 0,-125 -103,-228 -228,-228l-918 0c-126,0 -229,103 -229,228 0,126 103,228 229,228zm0 -729c-126,0 -229,-103 -229,-228 0,-126 103,-228 229,-228l1182 0c126,0 229,102 229,228 0,125 -103,228 -229,228l-1182 0zm595 -1186l587 0c126,0 229,103 229,229 0,125 -103,228 -229,228l-587 0 0 -457zm-55 -729l642 0c126,0 229,103 229,228 0,126 -103,229 -229,229l-587 0 0 -227c0,-81 -18,-158 -55,-230zm-1797 0c451,0 901,0 1351,0 126,0 228,103 228,228 0,319 0,639 0,958l-279 0c-126,0 -229,-103 -229,-228l0 -495 -272 -2 0 497c0,123 -102,228 -229,228l-569 0c-137,0 -217,-101 -229,-228 0,-244 0,-487 0,-730 0,-125 103,-228 228,-228z"
   id="path11" />
  <path
   class="fil3"
   d="M6074 5961l-794 0c-126,0 -229,-102 -229,-228l0 -228 795 0c125,0 228,102 228,228l0 228zm1024 -456l788 0 0 228c0,126 -102,228 -228,228l-788 0 0 -228c0,-126 102,-228 228,-228zm-751 -171c76,-35 159,-76 250,-125l0 752c-27,0 -55,0 -82,0 -87,0 -168,-63 -168,-161l0 -466z"
   id="path13" />
  <path
   class="fil4"
   d="M6275 0c3452,0 6250,2798 6250,6250 0,3452 -2798,6250 -6250,6250 -3452,0 -6250,-2798 -6250,-6250 0,-3452 2798,-6250 6250,-6250zm1541 11839l-190 44 -166 -719c-54,81 -125,148 -212,201l-40 -173c46,-28 93,-71 141,-130 47,-59 75,-121 83,-186l154 -36 230 999zm-4516 -1832l-645 745 -241 -209c-91,-79 -147,-135 -169,-166 -32,-48 -47,-103 -43,-166 3,-62 31,-123 82,-182 40,-46 81,-77 125,-94 43,-17 86,-23 126,-19 41,5 77,15 109,32 42,24 97,66 165,124l97 85 244 -281 150 131zm-686 488l183 -212 -82 -71c-59,-51 -101,-81 -128,-91 -27,-9 -53,-11 -79,-4 -25,7 -48,22 -67,44 -24,27 -35,56 -35,88 1,31 11,59 32,85 15,19 49,52 103,99l73 62zm-460 -1741l133 169 -124 205 244 311 227 -74 130 166 -1010 308 -131 -166 531 -919zm-82 528l-202 333 369 -121 -167 -212zm35 -629l-898 406 -173 -382c-43,-96 -66,-169 -70,-220 -4,-51 9,-98 39,-143 29,-45 70,-79 123,-103 68,-31 132,-36 194,-17 62,20 116,66 163,140 5,-50 16,-93 32,-131 15,-38 49,-94 99,-168l126 -189 98 217 -138 218c-48,78 -78,130 -88,156 -10,25 -15,49 -13,71 3,22 13,54 32,96l17 37 374 -169 83 181zm-600 53l-61 -135c-39,-86 -68,-139 -85,-157 -17,-19 -37,-30 -61,-34 -23,-4 -49,0 -75,12 -31,14 -51,33 -63,58 -11,24 -13,52 -4,84 4,15 23,60 57,133l63 142 229 -103zm149 -1180l-798 184 65 285 -162 37 -175 -761 162 -38 65 283 798 -184 45 194zm-121 -599l-977 124 -25 -198 977 -124 25 198zm-33 -1274l-6 214 -226 80 -10 395 222 87 -5 211 -976 -407 6 -211 995 -369zm-400 354l-368 128 361 142 7 -270zm166 -823l35 -192c65,7 117,-3 156,-29 39,-26 67,-67 84,-126 17,-61 17,-111 0,-149 -17,-39 -43,-63 -78,-73 -23,-6 -43,-5 -63,3 -19,9 -40,28 -60,57 -15,20 -43,67 -85,141 -55,95 -106,158 -155,188 -69,43 -141,54 -216,33 -49,-14 -90,-40 -125,-79 -34,-40 -55,-88 -62,-146 -8,-57 -1,-122 19,-195 34,-119 86,-201 155,-245 70,-45 149,-57 238,-35l-48 194c-51,-6 -91,2 -120,22 -29,21 -51,58 -66,111 -16,55 -17,102 -3,140 9,24 26,40 51,47 22,6 44,2 65,-12 28,-19 66,-71 114,-158 48,-86 91,-149 127,-186 36,-38 78,-64 126,-77 48,-14 101,-12 161,5 55,15 101,45 140,88 39,44 62,97 69,158 8,62 0,134 -24,216 -34,120 -87,204 -161,253 -73,48 -165,64 -274,46zm141 -1054c-87,-50 -152,-105 -196,-165 -33,-44 -57,-93 -72,-147 -15,-53 -20,-105 -14,-155 8,-66 32,-134 72,-203 73,-126 170,-204 292,-235 121,-31 252,-6 391,74 138,80 225,179 260,299 35,120 16,243 -56,368 -73,127 -170,206 -291,236 -121,31 -249,7 -386,-72zm97 -181c97,56 183,76 259,60 75,-16 133,-59 173,-128 39,-69 47,-139 23,-212 -24,-73 -86,-138 -185,-195 -98,-56 -184,-77 -257,-61 -73,15 -130,58 -171,130 -40,71 -49,142 -25,214 24,72 84,136 183,192zm1029 -1248l171 -107c63,93 91,183 86,270 -5,86 -42,169 -111,249 -86,99 -190,151 -313,156 -123,5 -243,-43 -360,-145 -124,-107 -193,-222 -206,-346 -13,-123 25,-237 116,-342 79,-91 170,-141 273,-151 61,-7 129,8 204,42l-94 180c-46,-25 -92,-33 -139,-24 -47,8 -87,33 -122,73 -48,55 -67,117 -57,186 10,68 59,141 148,218 94,81 176,122 245,123 69,1 127,-26 174,-80 35,-40 52,-86 52,-136 -1,-51 -23,-107 -67,-166zm534 -8l-645 -744 151 -131 645 745 -151 130zm1038 -740l-181 116 -193 -143 -332 213 52 233 -178 114 -210 -1036 178 -113 864 616zm-518 -132l-312 -233 85 378 227 -145zm626 94l-358 -909 186 -73 297 754 459 -181 61 155 -645 254zm778 -283l-221 -960 194 -45 222 960 -195 45zm287 -403l190 -44c19,63 49,107 88,133 39,26 88,35 148,27 63,-8 109,-27 138,-58 29,-31 41,-65 36,-101 -3,-23 -12,-42 -27,-56 -16,-15 -41,-26 -77,-33 -24,-6 -78,-13 -162,-23 -109,-13 -187,-36 -234,-69 -67,-46 -105,-108 -115,-186 -6,-50 2,-98 24,-145 23,-47 59,-86 109,-115 50,-30 113,-49 188,-59 122,-15 217,0 286,47 69,46 110,115 125,205l-197 32c-15,-50 -37,-83 -68,-102 -30,-19 -73,-24 -128,-17 -57,7 -100,24 -129,52 -19,18 -27,39 -23,65 3,23 15,42 37,56 27,18 90,32 189,42 98,11 172,25 221,44 49,18 89,47 120,85 32,39 51,89 59,151 7,56 -2,110 -27,163 -25,53 -64,95 -118,126 -54,31 -123,52 -208,63 -123,16 -222,-1 -295,-50 -74,-48 -124,-126 -150,-233zm1227 238l62 -817 -291 -22 13 -166 779 59 -13 166 -289 -22 -62 817 -199 -15zm615 65l222 -960 710 164 -37 162 -516 -119 -49 213 480 111 -38 162 -480 -111 -60 260 535 124 -37 162 -730 -168zm1238 394l491 -854 632 363 -83 144 -459 -264 -109 190 427 245 -83 145 -427 -246 -133 232 475 273 -83 145 -648 -373zm1282 455l147 127c-38,53 -57,103 -54,150 2,47 24,92 66,135 44,47 87,72 129,77 42,5 76,-5 102,-30 17,-17 27,-35 29,-56 3,-21 -3,-49 -18,-81 -10,-23 -36,-71 -78,-145 -54,-95 -82,-171 -84,-229 -2,-81 25,-149 82,-203 36,-34 80,-57 131,-66 52,-10 104,-3 157,19 54,23 106,62 159,117 84,89 129,175 132,257 3,83 -27,157 -91,223l-143 -140c31,-41 45,-79 42,-115 -3,-35 -23,-73 -62,-113 -39,-42 -79,-66 -118,-73 -26,-5 -48,2 -67,20 -17,16 -24,37 -23,62 2,33 28,92 78,178 50,85 82,154 97,204 14,50 15,99 2,147 -13,49 -41,94 -86,137 -41,39 -90,64 -148,76 -57,11 -114,4 -171,-21 -57,-25 -115,-68 -174,-130 -86,-90 -131,-179 -135,-267 -5,-88 28,-175 99,-260zm435 928l829 -532 108 168 -327 210 210 326 326 -209 108 168 -829 532 -108 -168 362 -233 -209 -326 -362 232 -108 -168zm926 1539c-14,58 -21,117 -19,178l-159 -16c-2,-31 -1,-63 3,-95 0,-7 11,-59 33,-155 -50,-50 -89,-111 -118,-184 -56,-141 -58,-268 -6,-380 52,-113 153,-199 303,-258 150,-59 282,-65 397,-18 115,47 200,139 254,276 53,136 54,260 2,373 -52,112 -153,198 -303,257 -79,31 -153,48 -222,49 -52,2 -107,-7 -165,-27zm46 -190c37,13 78,17 123,14 44,-4 92,-16 143,-37 106,-41 176,-96 210,-163 34,-68 36,-139 6,-214 -29,-76 -80,-127 -151,-153 -71,-26 -159,-18 -265,24 -108,42 -179,97 -213,165 -35,68 -38,138 -10,210 10,26 25,50 43,70 10,-47 14,-93 12,-137l128 10c3,69 -6,139 -26,211zm-111 505l960 -222 45 194 -960 222 -45 -194zm84 380l983 -74 24 318c9,120 10,199 3,236 -11,58 -39,107 -85,149 -47,42 -109,66 -187,72 -61,4 -112,-3 -155,-22 -43,-18 -77,-44 -103,-75 -26,-32 -44,-65 -55,-100 -12,-46 -22,-114 -29,-204l-10 -129 -371 28 -15 -199zm832 137l-280 22 8 108c6,78 15,129 28,155 12,25 29,45 53,58 23,13 49,19 78,16 36,-2 65,-15 86,-38 22,-23 35,-50 38,-83 3,-24 1,-71 -4,-142l-7 -96zm-780 781l977 124 -91 724 -166 -21 67 -526 -217 -27 -62 488 -165 -21 62 -488 -265 -34 -69 545 -165 -21 94 -743zm1046 293l161 21 -20 161 -161 -21 20 -161zm-36 288l161 20 -21 161 -161 -20 21 -161zm-1134 331l933 315 -134 397c-34,100 -67,170 -99,209 -32,40 -74,66 -126,78 -52,13 -105,10 -161,-8 -70,-24 -121,-64 -152,-121 -32,-56 -40,-127 -24,-213 -38,33 -75,57 -112,74 -38,17 -100,36 -188,56l-221 52 77 -225 249 -66c89,-24 146,-42 171,-54 24,-11 44,-26 57,-43 14,-18 28,-49 43,-92l13 -39 -390 -131 64 -189zm475 371l-48 139c-30,91 -45,148 -45,173 0,25 7,48 21,66 15,20 36,34 64,43 32,11 60,11 85,1 25,-10 45,-30 60,-59 8,-14 24,-60 50,-136l50 -147 -237 -80zm-819 553l877 449 -91 177 -877 -449 91 -177zm126 497l-97 170c-59,-28 -112,-37 -157,-26 -46,12 -86,42 -121,91 -37,52 -53,99 -50,141 3,42 20,74 49,95 19,13 39,19 60,18 22,-2 47,-13 76,-34 21,-14 63,-49 127,-104 84,-71 153,-113 210,-125 79,-18 150,-4 214,41 41,29 71,68 91,117 19,48 22,101 10,158 -12,56 -40,115 -84,177 -71,100 -147,160 -228,179 -81,19 -159,3 -236,-47l110 -166c47,22 87,28 121,19 34,-10 68,-37 100,-83 33,-46 49,-90 49,-130 -1,-26 -11,-46 -32,-61 -19,-14 -41,-17 -66,-11 -32,8 -85,45 -160,110 -74,66 -135,110 -181,134 -47,23 -95,33 -145,30 -50,-3 -100,-23 -151,-59 -46,-33 -80,-76 -102,-130 -22,-54 -26,-112 -12,-172 13,-61 45,-126 95,-196 72,-101 151,-163 236,-184 86,-21 177,-5 274,48zm-825 607l680 713 -528 503 -115 -120 384 -366 -151 -158 -357 340 -115 -121 357 -339 -184 -194 -398 379 -114 -120 541 -517zm627 888l112 117 -118 112 -112 -117 118 -112zm-210 199l112 118 -117 112 -112 -118 117 -112zm-3583 869c-5,-63 -23,-110 -54,-143 -32,-32 -66,-47 -104,-44 -36,3 -65,19 -86,49 -22,31 -30,78 -25,142 5,66 21,113 49,142 28,28 62,41 101,38 37,-3 67,-20 91,-51 23,-32 32,-76 28,-133zm-406 459l187 -35c8,39 22,66 42,83 21,17 47,25 79,22 40,-3 72,-24 97,-63 25,-40 37,-118 36,-235 -45,60 -104,93 -177,99 -80,6 -151,-19 -214,-77 -62,-57 -97,-135 -105,-234 -8,-103 16,-188 73,-256 56,-68 132,-105 227,-112 102,-8 190,25 262,100 72,75 115,204 129,387 14,186 -10,323 -72,410 -62,88 -148,136 -259,144 -79,6 -144,-10 -197,-49 -51,-39 -88,-100 -108,-184zm-481 -455c5,-63 -6,-113 -32,-149 -26,-37 -58,-57 -96,-60 -36,-3 -67,9 -92,36 -26,26 -42,72 -47,136 -5,66 5,115 28,147 24,33 55,51 93,54 38,3 70,-10 98,-37 28,-28 44,-70 48,-127zm-471 393l191 -7c1,39 11,69 29,88 18,21 42,32 74,34 40,3 75,-13 106,-48 31,-35 54,-111 71,-227 -53,53 -117,77 -190,71 -80,-6 -147,-42 -200,-108 -53,-66 -76,-148 -68,-247 8,-103 44,-184 110,-242 67,-59 147,-84 242,-77 102,8 184,54 244,139 60,85 83,219 69,402 -14,186 -59,317 -134,395 -74,77 -167,111 -277,103 -79,-6 -142,-32 -187,-79 -46,-46 -72,-112 -80,-197zm-503 122l-188 -53 198 -710c-86,45 -181,70 -282,75l47 -171c54,-3 115,-18 185,-47 70,-29 124,-70 162,-124l153 42 -275 988zm3849 -1085c147,0 266,119 266,266 0,147 -119,266 -266,266 -147,0 -266,-119 -266,-266 0,-147 119,-266 266,-266zm-4908 0c147,0 266,119 266,266 0,147 -119,266 -266,266 -147,0 -266,-119 -266,-266 0,-147 119,-266 266,-266zm2454 -9057c2494,0 4516,2022 4516,4516 0,2494 -2022,4516 -4516,4516 -2494,0 -4516,-2022 -4516,-4516 0,-2494 2022,-4516 4516,-4516z"
   id="path15" />
 </g>
</svg>
